<?xml version="1.0" encoding="utf-8"?>
<svg version="1.1" id="Layer_1" xmlns="http://www.w3.org/2000/svg" xmlns:xlink="http://www.w3.org/1999/xlink" x="0px" y="0px"
	 viewBox="0 0 2598.681 1299.251" enable-background="new 0 0 2598.681 1299.251" xml:space="preserve">
<g>
	<path d="M928.305,844.041c-8.275,8.131-23.678,11.625-33.694,1.219c-18.941-19.678-35.151-77.316-42.495-60.228
		c-20.433,47.538,3.058,157.183,129.804,163.838c9.17,0.481,16.991,0.38,24.324-8.418c9.191-11.026,33.003-16.416,47.642-5.949
		c2.564,1.834,5.654,2.233,8.838,1.031c73.82-27.86,98.818-97.328,118.542-145.001c10.278-24.842,22.268-132.35-23.234-176.67
		c-8.43-8.211-14.398-18.745-23.746-26.298c-5.838-4.716-13.097-6.531-19.266-10.497c-1.641-1.055-3.595-0.544-5.401,0.485
		c-9.373,5.344-18.661,4.001-27.889-0.503c-11.345-5.537-15.938-7.67-30.892-5.689c-95.698,12.673-154.986-75.364-125.655-78.107
		c28.517-2.667,77.692-17.138,112.93,3.029c11.641,6.662,24.133,12.298,33.379,22.595c6.564,7.31,28.707-5.365,44.423,29.487
		c12.532,27.792,88.15,68.099,80.645,177.131c-3.412,49.571-1.259,53.021-24.534,106.015c-0.929,2.116-1.758,4.276-1.412,7.097
		c61.617-96.291,77.51-219.732,61.721-290.259c-4.505-20.122-21.406-20.307-15.857-40.536c5.699-20.776-14.637-8.892-23.6-35.573
		c-5.765-17.16,1.814-19.388-3.623-28.443c-7.303-12.161-14.329-24.796-24.341-34.778c-17.416-17.363-35.77-33.828-57.793-45.504
		c-7.634-4.047-15.222,9.18-16.983,17.533c-7.538,35.76-64.352,52.376-98.69,50.551c-21.125-1.122-29.086-6.274-39.997-2.066
		c-3.339,1.288-7.276-1.536-3.766-5.318c19.064-20.544,41.804-56.481,91.29-77.284c-13.063,0.665-25.876-2.535-38.969-0.732
		c-61.004,8.404-90.096,17.478-121.808,53.065c-17.577,19.725-37.193,50.842-42.162,76.158
		c-2.974,15.152,21.855,18.948,35.59,55.805c12.026,32.273,2.724,71.264,5.466,109.062c0.197,2.724,0.553,5.492-2.765,6.415
		c-3.157,0.879-6.007-0.654-7.21-3.32c-14.745-32.668-81.546-59.184-56.622-135.926c2.575-7.927,5.433-15.412,10.277-22.434
		c3.182-4.613,3.51-11.141,5.375-16.725c6.264-18.764,37.501-79.894,83.122-105.047c40.029-22.07,81.485-24.884,88.814-24.509
		c4.026,0.206,4.368-2.762,1.582-4.548c-16.602-10.64-38.083-37.754-43.335-65.235c-5.061-26.485-7.176-24.866-4.317-27.326
		c2.392-2.058,5.302-1.862,8.083-0.739c15.804,6.384,32.603,9.904,48.127,17.17c33.702,15.775,69.321,52.689,67.641,78.338
		c-0.267,4.076,1.825,5.776,5.375,7.133c63.833,24.417,105.827,79.859,110.229,89.412c0.681,1.478,1.293,4.086,3.72,3.567
		c1.957-0.418,1.579-2.667,1.911-4.233c4.368-20.622-2.993-39.897,6.846-53.572c3.223-4.48,0.667-8.316-1.397-11.801
		c-10.605-17.904-24.101-33.416-40.129-46.664c-49.189-40.655-90.152-74.424-177.8-87.333
		c-90.777-13.37-228.233,47.634-276.35,103.731c30.564,17.881,49.517,43.691,55.241,78.889c4.691,28.847-6.148,53.707-19.578,79.242
		c-43.771-79.012-60.214-77.238-62.282-121.576c-6.234,9.586-16.969,13.018-25.239,19.752
		c-20.894,17.014-41.026,93.49-39.623,122.148c0.44,8.988,5.552-4.322,12.354,8.518c5.403,10.201,8.901,21.147,12.161,33.99
		c9.648-13.988,22.955-20.512,36.786-26.275c1.937-0.807,3.692-2.468,5.89-0.948c2.354,1.629,1.12,3.855,0.66,5.834
		c-2.598,11.194-3.536,23.036-13.399,31.226c-3.294,2.735-2.028,4.995,2.021,5.482c38.689,4.651,56.485,43.626,56.636,44.631
		c3.228,21.46,16.836,37.744,27.541,55.497c6.612,10.966,2.279,23.44-9.943,27.652c-5.376,1.853-7.653,4.316-8.845,10.119
		c-7.972,38.805-66.162,31.316-72.717,25.041c-16.523-15.818-21.938,16.687-53.298,18.641c-11.54,0.719-22.307-0.827-29.604-11.378
		c-1.684-2.434-3.635-4.398-7.07-2.407c-18.193,10.546-39.704-4.117-31.085-29.457c11.699-34.394-4.451-31.907,17.381-85.554
		c15.674-38.514,33.74-38.31,22.128-42.601c-10.772-3.981-18.826-13.614-17.458-23.8c1.182-8.801-4.494-15.747,0.702-18.072
		c2.359-1.055,4.75-0.274,5.789,1.379c7.767,12.361,21.103,5.41,31.348,9.125c4.827,1.751,3.115-7.65,3.667-21.312
		c2.878-71.225,21.214-103.449,29.338-123.355c1.298-3.181,1.417-7.014-3.342-6.313c-18.628,2.742-38.011,1.455-55.538,10.32
		c-18.922,9.57-22.582,22.76-29.326,19.159c-3.738-1.996-2.55-5.621-2.267-8.898c3.382-39.085,27.521-62.32,60.142-79.302
		c24.085-12.538,54.174-22.659,79.655-12.945c13.992,5.334,33.88-27.516,98.29-59.791c26.749-13.403,116.014-50.747,188.042-44.978
		c109.216,8.749,202.655,84.976,238.12,139.037c6.21,9.467,12.692-9.848,40.759,5.051c2.25,1.195,4.842,1.747,9.23,3.276
		c-2.305-5.173-16.061-41.482-52.841-94.008c-6.236-8.905-13.312-17.222-20.013-25.8c-2.292-2.933-4.503-3.795-8.45-1.9
		c-26.838,12.889-54.463-14.31-45.156-43.293c1.059-3.297,0.201-5.388-2.783-7.769c-71.825-57.305-178.549-87.244-178.618-72.584
		c-0.017,3.543-2.889,4.839-5.964,4.684c-8.93-0.451-23.906-0.116-27.433-7.629c-2.57-5.473-7.358-7.02-12.987-6.552
		c-62.737,5.217-157.005,28.318-225.338,66.639c-41.375,23.203-94.348,67.585-116.924,88.785
		c-59.787,56.142-81.749,106.045-95.751,160.973c-11.695,45.877-11.036,43.824-8.82,51.596
		c3.248,11.391,32.46,92.137,26.494,153.423c-7.28,74.783-37.3,61.623-30.099,106.237c1.192,7.387,0.685,15.22,4.952,21.942
		c0.369,0.581,0.643,1.335,0.655,2.015c0.347,19.929,16.434,24.575,30.475,30.697c8.998,3.923,90.051-37.004,123.16-5.765
		c1.298,1.225,3.723,1.867,2.432,4.337c-1.068,2.044-3.152,3.594-5.289,2.577c-18.663-8.878-42.172,22.314-68.086,26.581
		c-15.56,2.562-31.801,4.148-44.542-7.67c-10.155-9.419-21.621-16.884-32.508-25.207c-1.467-1.121-2.976-3.807-5.402-2.065
		c-4.893,3.513,4.96,48.773,6.574,67.242c1.409,16.13,5.187,31.698,9.534,47.192c3.154,11.243-0.147-2.967,32.795,19.937
		c27.685,19.249,58.876,14.353,83.659,59.359c1.745,3.168,4.028,6.934,0.743,10.514c-3.568,3.888-7.131,1.283-10.988-0.094
		c-30.769-10.985-54.116-2.689-84.421-17.146c-1.619-0.772-3.402-2.756-5.17-1.4c-2.102,1.612-0.296,3.887-0.012,5.909
		c1.784,12.709,11.674,19.734,19.812,27.807c27.108,26.89,51.261,79.437,53.953,109.226c0.98,10.843,99.398,85.698,180.472,49.293
		c14.35-6.443-3.238-5.699-4.259-31.576c-0.47-11.919,1.956-23.497,3.965-35.177c4.628-26.907,20.26-34.582,20.078-54.67
		c-0.048-5.338,3.734-4.838,5.322-1.806c8.544,16.315,20.858,30.963,24.755,49.322c6.891,32.465-14.037,54.616-14.919,60.792
		c32.189-11.204,72.516-99.063,34.332-163.665c-20.309-34.36-82.528-46.057-122.219-29.728
		c-12.389,5.097-14.693,10.21-11.666,23.409c5.231,22.808,27.488,41.736,26.627,76.983c-1.118,45.781-17.169,59.361-29.139,46.941
		c-20.419-21.186-39.139-44.471-41.654-74.89c-2.546-30.802,9.108-56.256,37.205-72.627
		c85.393-49.757,195.225,10.85,154.281,141.453c-6.608,21.077-17.063,39.408-37.283,52.644
		c-72.69,47.581-164.027,33.06-226.657-24.759c-1.122,6.466-2.449,11.71-2.877,17.025c-2.198,27.328-31.798,67.166-53.221,84.229
		c-16.379,13.046-64.913,34.838-125.011,17.999c-31.266-8.76-60.155-54.106-52.677-95.408c0.627-3.464-15.05-55.882,40.93-93.214
		c14.025-9.353,30.188-13.467,45.109-20.562c9.914-4.714,19.797-13.031,22.589-10.298c1.85,1.81-0.364,3.424-1.37,4.761
		c-21.536,28.646-14.377,52.923-49.16,94.483c-39.311,46.969-49.691,18.081-49.55,40.088c0.32,49.853,33.517,87.555,112.136,79.548
		c62.232-6.338,97.262-67.235,103.777-103.844c1.296-7.28,0.934-14.625,1.245-21.94c0.156-3.672-2.751-5.877-5.034-8.27
		c-36.948-38.739-43.021-66.258-47.963-74.073c-0.333-0.526-1.016-0.83-1.432-1.152c-1.341,0.359-1.51,1.224-1.469,2.221
		c2.054,49.964-35.14,68.248-39.81,92.562c-0.781,4.068-4.635,4.701-6.333-0.069c-32.389-91.008,40.465-118.47,30.57-151.226
		c-3.09-10.23-4.582-20.57-10.49-30.2c-10.482-17.086-3.248-31.066-9.481-57.651c-7.104-30.302-8.942-67.306-12.286-73.398
		c-10.012,15.419-11.325,92.516-60.765,161.393c-78.91,109.932-242.454,95.735-299.049,24.719
		c-6.944-8.713-7.235-8.544-16.358-2.685c-9.863,6.335-18.875,13.55-24.941,23.9c-13.509,23.05,21.242,26.483,29.471,97.051
		c2.303,19.748,2.556,39.726,7.37,59.198c2.682,10.849,13.262,26.721,8.436,29.624c-2.505,1.506-3.914-1.86-5.824-2.99
		c-4.86-2.877-7.719-7.514-10.508-12.256c-13.504-22.965-85.099-56.328-59.704-128.73c1.012-2.885,2.357-5.754,4.067-8.278
		c17.522-25.882,15.778-42.369,50.633-64.765c13.738-8.828-6.783-14.511-19.371-63.695c-18.642-72.839,2.528-137.987,55.234-193.43
		c46.124-48.518,82.423-34.475,77.54-55.805c-26.79-117.012,125.987-187.085,175.992-82.724
		c11.528,24.058,9.145,49.392,8.466,74.662c-0.043,1.594-0.48,3.494-1.433,4.7c-11.288,14.283-16.754,34.045-37.179,39.774
		c-13.628,3.823,11.54,12.381,23.897,44.173c1.034,2.661,2.446,3.733,5.304,3.365c4.466-0.575,9.182-0.464,13.2-2.542
		c8.792-4.548,52.23-25.837,47.661-34.443c-8.479-15.969-20.192-83.232-19.15-131.978c1.129-52.804-6.26-46.101,27.152-153.988
		c3.227-10.421,17.148-33.175,13.929-37.768c-16.679,14.802-15.505,32.41-52.051,63.336c-20.943,17.723-43.182,11.922-56.637-7.965
		c-25.184-37.222-0.015-70.487,12.097-91.906c8.813-15.584-1.738-18.573,4.053-23.158c5.155-4.08,20.627,8.996,27.548,33.366
		c7.706,27.135-17.146,81.944-2.985,89.772c4.235,2.341,7.166-0.785,10.152-3.017c30.47-22.772,29.111-42.022,63.635-78.671
		c32.564-34.568,43.1-69.631,114.799-135.653c89.813-82.702,170.73-129.12,343.09-146.71c2.309-0.236,4.086-0.976,5.548-2.678
		c7.367-8.576,16.532-9.546,26.123-2.777c10.493,7.405,21.912,10.102,33.846,13.027c85.059,20.851,134.077,59.825,140.665,62.183
		c-8.097-10.602-10.619-23.342-13.115-35.56C1079.11,5.395,1263.769-30.428,1307.366,56.936
		c6.811,13.649,15.453,39.386,13.152,55.803c-1.794,12.793-0.867,26.018-6.902,38.111c-38.745,77.635-107.003,65.713-140.927,1.461
		c-7.853-14.874-6.722-62.361,3.616-60.974c2.85,0.382,3.218,2.261,5.601,13.009c2.993,13.502,11.357,22.423,23.496,28.506
		c15.85,7.943,31.739,14.508,50.249,11.622c24.116-3.761,40.567-20.594,48.224-44.083c11.11-34.077-17.311-67.234-47.98-77.422
		c-62.577-20.789-176.801,19.239-134.682,140.331c3.298,9.48,12.046,14.392,18.02,21.622c4.584,5.547,9.612,7.778,18.308,5.919
		c25.977-5.554,49.787,24.423,36.424,48.246c-3.096,5.52-2.297,6.772,17.498,29.282c12.113,13.774,20.049,28.992,39.97,63.762
		c0.833,1.454,1.776,2.964,3.63,3.104c2.584,0.194,2.815-2.097,3.537-3.759c7.919-18.222,26.071-30.751,50.695-24.505
		c44.427,11.269,49.689-9.887,68.885,35.799c8.73-13.427,17.833-25.818,25.206-39.165c22.452-40.641,44.186-46.752,40.059-60.367
		c-6.689-22.064,15.41-53.121,44.943-39.727c2.442,1.108,4.388,2.263,7.127,0.307c25.272-18.046,42.114-41.391,45.275-72.988
		c4.194-41.93-8.387-64.026-37.593-87.802c-48.813-39.736-116.823-26.383-149.376,19.946c-11.761,16.738-9.171,33.086-5.755,50.11
		c11.751,58.556,69.443,42.093,96.044,19.125c34.664-29.931,33.7-33.034,37.328-31.673c2.665,0.999,1.054,3.735,1.474,5.68
		c5.994,27.719-5.773,50.764-20.71,72.054c-21.108,30.087-82.448,47.357-117.322-3.248c-29.342-42.577-25.789-90.708,12.989-130.977
		c64.112-66.577,202.679-22.447,191.04,89.469c-1.64,15.772-9.417,29.123-15.201,43.293c-1.04,2.547-4.08,5.321-1.791,7.681
		c2.301,2.373,5.207-0.689,7.586-1.748c14.144-6.293,68.459-34.059,143.783-50.12c3.834-0.818,6.824-2.114,9.145-5.76
		c7.369-11.581,24.781-14.464,32.779-1.886c5.436,8.55,17.25-1.515,75.354,8.536c75.816,13.115,175.981,63.131,236.179,112.022
		c94.013,76.354,112.182,122.7,135.658,170.669c15.806,32.297,39.737,76.869,74.588,85.103c4.006,0.947,8.334,2.151,11.404-1.132
		c3.154-3.373,0.366-7.192-1.035-10.594c-4.439-10.778-35.702-56.936,10.398-98.28c1.834-1.645,15.607-9.403,13.686,1.325
		c-2.119,11.83,25.745,35.66,17.45,76.411c-7.643,37.549-39.188,70.191-99.511,12.041c29.277,156.089,21.197,182.09-6.914,268.403
		c-4.167,12.795-13.545,12.739-0.737,22.99c13.583,10.872,29.011,18.738,45.632,24.153c5.625,1.833,11.413,6.169,16.614,5.482
		c5.491-0.725,5.381-9.106,8.67-13.579c34.033-46.295,12.899-14.249-6.544-48.802c-2.564-4.557-4.067-9.386-4.475-14.048
		c-1.158-13.221-7.111-25.312-7.476-38.791c-2.592-95.656,78.871-123.287,142.894-83.63c34.345,21.275,44.684,50.845,45.784,92.79
		c0.889,33.892-8.926,38.8,0.32,43.095c74.181,34.46,85.972,64.356,98.601,91.065c28.869,61.053,33.525,131.071-0.99,191.072
		c-3.422,5.949-6.344,12.233-11.276,17.189c-2.522,2.535-1.795,4.223,0.983,6.147c22.994,15.92,36.799,37.538,46.589,62.056
		c13.167,32.973,25.379,66.338-17.767,99.173c-24.184,18.403-44.054,26.093-53.723,41.411c-0.932,1.476-2.177,3.658-4.426,2.675
		c-2.542-1.111-1.068-3.481-0.55-5.023c14.939-44.436-3.165-39.115,22.92-86.873c12.5-22.884,46.081-56.42,30.266-76.393
		c-5.554-7.015-28.533-38.536-37.767-29.087c-28.238,28.896-63.427,44.578-102.542,51.091
		c-79.828,13.292-117.991-12.998-155.576-41.724c-79.974-61.125-89.867-166.357-93.372-175.981
		c-5.871,10.016-16.053,67.076-16.854,70.589c-2.073,9.089,2.847,24.981-19.819,46.696c-32.329,30.973,53.527,59.087,18.129,165.885
		c-0.831,2.507-3.021,4.228-5.474,1.901c-7.841-7.441-17.376-12.604-24.481-21.306c-20.746-25.409-15.575-67.335-15.607-77.716
		c-1.975,3.76-4.204,7.41-5.884,11.297c-14.53,33.612-38.918,58.188-41.229,59.807c-17.652,12.366-12.711,29.871-9.723,46.234
		c14.139,77.444,76.293,102.997,159.047,90.322c43.28-6.629,70.941-71.293,53.383-78.686
		c-27.732-11.676-52.259-19.738-66.562-64.136c-9.333-28.97-0.54-31.578-14.698-52.739c-5.406-8.08-11.84-17.158-2.808-15.608
		c9.541,1.637,20.521,20.485,31.403,24.87c95.593,38.522,68.495,96.508,63.539,126.101c-5.781,34.521-38.438,68.12-81.795,69.707
		c-25.93,0.949-52.133,2.074-76.389-8.724c-61.245-27.265-69.024-72.088-74.76-110.966c-0.526-3.566-1.078-5.391-5.13-2.314
		c-27.572,20.933-57.732,36.933-92.524,40.591c-64.457,6.777-139.457-15.622-161.881-76.521
		c-7.259-19.714-15.292-39.623-13.268-61.052c8.361-88.517,81.326-130.572,160.287-95.862
		c47.605,20.926,51.464,79.701,33.167,128.168c-8.995,23.825-26.016,28.269-38.329,38.437c-5.711,4.716-10.663,3.383-15.08-3.052
		c-51.736-75.386,67.637-126.464,9.431-157.905c-44.493-24.034-113.141-8.022-135.359,57.327
		c-20.462,60.185,20.397,128.152,32.557,130.237c0.041-1.112-23.567-58.289,21.4-101.028c6.41-6.093,8.521-5.745,12.119,2.098
		c14.063,30.659,31.19,54.213,9.802,95.8c-2.352,4.573-4.042,9.468-7.431,13.633c-2.411,2.963,4.522,11.764,10.493,13.751
		c53.676,17.853,99.096,11.589,139.13-9.598c36.685-19.415,38.636-25.8,40.065-34.252c8.398-49.675,32.848-85.759,70.804-122.358
		c1.733-1.671,3.499-3.232,3.692-6.242c-5.308-0.121-9.969,2.211-14.802,3.66c-19.402,5.814-39.283,5.794-59.245,5.121
		c-26.289-0.886-30.905,2.6-26.451-6.957c25.076-53.807,88.375-47.678,125.871-62.171c11.778-4.552,11.828-30.436,20.922-64.742
		c6.327-23.87,6.991-48.647,10.965-72.903c0.792-4.843,0.966-6.882-1.179-7.827c-9.94-4.376-53.322,92.772-134.052,16.186
		c-9.849-9.344-19.326-8.661-11.898-15.139c4.55-3.968,10.011-5.179,15.886-4.88c21.54,1.093,43.048,2.172,64.12,7.593
		c19.66,5.058,24.435,17.552,41.49,7.302c38.164-22.936,33.835-50.579,35.69-67.803c0.146-1.36-1.208-3.043-2.182-4.338
		c-48.424-64.362-26.416-178.631,2.96-226.552c6.633-10.82,5.905-22.387,3.705-34.432c-11.02-60.341-6.623-108.125-76.993-180.479
		c-34.16-35.123-64.406-67.441-137.926-108.762c-89.159-50.11-201.185-82.655-228.853-57.106
		c-10.819,9.99-21.772,10.251-32.42,0.091c-11.571-11.041-109.182,21.998-181.863,60.465
		c-19.731,10.443,11.177,25.094-21.467,49.625c-24.98,18.771-31.893-6.16-43.788,5.24c-29.229,28.011-77.235,115.224-72.833,120.728
		c2.615,3.27,18.069-6.731,31.938-6.651c9.29,0.053,8.099-12.845,60.022-57.657c104.65-90.318,255.343-107.919,408.901-18.693
		c49.124,28.544,60.421,62.534,73.653,59.775c53.929-11.244,129.353,16.089,145.394,88.271c1.865,8.391-3.791,15.193-12.039,8.205
		c-20.852-17.666-71.685-16.46-104.04-42.006c40.482,71.802,48.759,96.877,41.563,174.057c-0.894,9.593,3.499,0.922,24.314,6.38
		c9.768,2.561,19.051-1.528,29.083-2.541c0.908,4.184-2.195,6.862-3.688,10.077c-4.482,9.65-10.065,18.251-20.588,22.314
		c-2.43,0.939-3.795,2.224-1.377,4.601c29.839,29.331,22.679,70.276,29.166,109.185c1.946,11.671-6.853,25.094-19.094,30.457
		c-7.669,3.361-19.036,3.841-27.166,13.856c-13.687,16.859-36.056-2.095-74.03-11.962c-27.043-7.027-47.546,3.474-67.315-21.181
		c-5.298-6.607,0.145-11.393-10.566-15.371c-18.298-6.797-28.469-28.337-2.722-62.102c14.084-18.471,2.449-13.656,28.895-46.981
		c9.258-11.666,38.803-19.48,51.992-20.209c2.295-0.127,5.202,0.289,6.371-2.248c1.266-2.747-1.582-4.115-2.939-5.912
		c-6.863-9.09-10.854-19.9-17.867-29.013c-6.249-8.119,16.19-16.432,36.211,7.165c3.591,4.232,4.899,2.61,6.445-1.279
		c2.69-6.768,7.921-11.731,12.545-17.093c1.166-1.352,2.849-2.981,4.894-2.114c2.096,0.889,1.601,3.127,1.782,5.004
		c0.507,5.245,0.297,10.772,4.894,15.441c11.321-69.629-15.16-127.005-55.21-181.784c-2.977,74.896-21.639,67.615-61.545,122.545
		c-5.888,8.105-11.562,7.748-16.523-0.852c-21.621-37.485-13.906-93.393,28.902-123.859c8.678-6.177,16.694-13.28,25.299-19.566
		c4.736-3.46,2.628-6.785,0.221-9.592c-38.239-44.603-62.452-62.759-142.877-92.441c-30.165-11.133-61.945-15.101-93.909-18.416
		c-106.851-11.08-194.099,41.843-265.892,116.989c-16.136,16.89,16.415,9.404,15.126,39.951
		c-0.679,16.089-4.428,28.831-2.201,36.876c12.262-9.773,21.525-21.488,31.986-31.975c56.469-56.608,77.76-43.398,80.349-62.268
		c3.36-24.5,39.795-57.944,63.824-68.565c33.156-14.655,47.879-11.672,61.592-18.703c2.747-1.408,5.161-2.302,7.915-0.33
		c3.021,2.163,1.838,4.991,1.366,7.769c-8.775,51.601-55.617,72.633-66.54,83.189c6.205,0,12.411,0.021,18.616-0.003
		c70.403-0.276,128.534,39.47,148.568,77.361c30.492,57.673,13.799,51.854,26.512,80.039c18.739,41.541,5.542,87.33-24.917,119.171
		c-8.591,8.98-29.246,21.328-33.434,32.327c-0.744,1.952-1.013,4.633-3.808,4.393c-2.678-0.23-3.986-2.635-4.543-4.937
		c-23.84-98.518,17.793-126.352,48.232-154.219c12.55-11.489-9.689-73.579-32.681-95.628
		c-35.147-33.707-76.651-51.318-125.746-49.966c-46.803,1.289-32.028-0.612-42.843,1.394c15.9,6.582,14.285-0.382,47.502,21.987
		c15.443,10.4,26.661,34.755,44.271,48.779c12.763,10.164,4.36,15.231-5.067,15.923c-34.009,2.495-67.443,0.357-95.694-21.185
		c-18.362-14.001-31.782-25.499-37.343-47.554c-0.843-3.341,1.273-8.304-2.152-9.805c-3.291-1.442-7,1.975-10.296,3.635
		c-37.542,18.905-76.306,65.859-91.474,80.266c-2.671,2.537-3.251,5.135-2.514,8.883c3.239,16.459-3.914,31.444-19.874,34.74
		c-7.999,1.652-2.356,10.81-2.592,21.33c-0.611,27.226-30.22,11.719-37.061,54.742c-9.577,60.229,11.871,163.271,22.636,185.702
		c1.12,2.334,2.148,4.799,2.673,7.317c9.136,43.83,35.544,95.677,52.888,110.32c-27.428-50.081-46.26-99.987-40.324-155.027
		c12.941-119.997,77.901-135.103,90.612-164.083c10.276-23.428,29.66-20.863,53.879-36.397
		c46.513-29.833,100.366-27.314,136.819-8.588c7.713,3.962,8.722,6.522,4.463,13.906c-8.582,14.878-22.252,24.298-36.21,33.374
		c-40.564,26.376-83.303,14.842-108.217,27.353c-9.553,4.797-20.169,7.832-30.946,4.5
		c-76.508-23.657-139.312,143.516-79.449,251.518c6.777,12.227,33.026,81.88,95.111,103.711c9.352,3.289,6.325-7.434,30.245-1.563
		c15.714,3.856,23.366,3.597,26.411,13.329c1.609,5.14,5.071,6.581,10.289,6.585c86.38,0.066,169.532-65.675,151.494-150.792
		c-1.966-9.276-3.486-9.639-10.401-3.251c-17.613,16.269-20.271,20.723-20.591,24.018c-0.836,8.605-6.553,14.632-10.415,21.516
		c-6.447,11.491-23.911,15.091-34.831,7.606c-3.778-2.59-6.611-3.545-7.612,1.822c-2.312,12.394-11.98,17.094-21.975,20.953
		c-25.692,9.921-37.454-13.275-82.736-15.298c-20.719-0.926-29.981-14.682-34-30.902c-1.165-4.7-2.943-6.723-7.962-6.999
		c-44.437-2.444-35.787-50.506-35.654-62.736c0.114-10.499-2.147-21.116-4.168-31.528c-4.506-23.217,11.227-43.161,34.848-43.613
		c13.19-0.252,13.267-0.266,10.969-13.641c-3.908-22.745,9.545-43.798,33.412-49.458c18.09-4.29,30.76,6.355,52.944-7.991
		c18.345-11.863,45.124-1.598,49.847,24.842c1.522,8.519,1.447,8.369,8.443,4.225c33.534-19.859,31.506,11.747,57.562,33.152
		c13.295,10.922,18.851,25.649,21.604,41.933c1.189,7.033-1.215,13.069-4.783,18.843c-7.081,11.463,10.914,19.536,10.19,46.751
		c-0.57,21.46,14.393,35.567-4.41,85.152c-27.052,71.34-117.433,97.024-158.96,94.509c-7.434-0.451-28.493,8.383-44.273-2.565
		c-34.098-23.658-134.727-39.802-195.301-207.355c-16.976-46.961-9.195-25-20.732-42.053c-26.614-39.339-21.36-74.274-22.646-97.446
		c-0.566-10.2-6.666-19.238-6.198-29.715c0.087-1.949-1.727-3.964,0.613-5.725c6.984-5.256,11.734,8.884,12.324-4.496
		c1.354-30.734-8.387-15.481-8.457-84.372c-0.002-2.118,1.296-5.725-2.145-5.617c-5.814,0.183-0.921,56.615-12.189,66.875
		c-7.12,6.483-3.405,14.012-4.059,21.126c-0.115,1.248,0.124,2.348,1.747,2.482c7.843,0.645,5.171,5.803,4.736,10.418
		c-1.034,10.986-6.258,20.784-8.379,31.497c-7.636,38.561,4.987,58.78-33.843,99.586c-12.406,13.038-5.736,24.248-28.525,65.614
		c-8.424,15.29-15.784,31.287-26.638,45.243c-15.715,20.206-30.526,41.285-50.836,57.252
		c-13.219,10.392-50.719,44.163-97.951,51.686c-10.279,1.637-17.445,19.11-60.482,13.491
		c-41.118-5.368-111.224-10.089-148.438-77.879c-16.441-29.949-18.903-69.17-8.917-99.509c2.392-7.268,5.784-14.02,2.906-22.447
		c-2.334-6.835,0.884-13.509,6.024-18.751c1.974-2.013,3.012-3.547,1.161-6.661c-11.068-18.622-7.153-38.732,10.434-51.879
		c9.797-7.323,16.82-16.57,22.152-27.312c10.152-20.455,31.032-24.422,48.01-9.232c2.613,2.338,5.123,7.387,8.818,5.414
		c3.28-1.752-0.432-5.908-0.84-9.016c-3.467-26.415,23.162-50.136,62.178-28.865c23.877,13.018,55.842-2.298,70.102,32.519
		c11.829,28.882-19.148,37.296-26.809,48.217c2.648,2.2,4.855,0.369,6.888-0.125c29.828-7.252,61.954,1.142,59.816,31.22
		c-2.566,36.085,10.876,52.64-7.498,81.659c-5.582,8.817-27.578,15.214-37.335,11.175c-18.486-7.653,5.059,29.178-24.845,37.324
		c-38.518,10.493-40.66,11.496-44.7,10.601c-10.164-2.25-19.614,0.792-29.356,2.749C955.16,873.218,933.153,866.7,928.305,844.041z
		 M222.856,959.3c-21.564-5.532-14.096,1.238-46.314-17.488c-47.122-27.388-37.264-74.931-57.487-104.698
		c-2.64-3.887,0.484-6.209,4.686-5.892c7.941,0.599,67.234,33.206,80.78,47.877c14.665,15.884,29.499,32.102,38.573,51.628
		c6.691,14.398,14.985,16.75,29.217,14.729c18.985-2.696,37.618-6.418,50.831-20.711c42.008-45.443,45.976-115.558,37.514-139.427
		c-2.351-6.632-2.532-3.345-40.81-5.592c-3.296-0.193-5.316,0.231-6.634,3.484c-16.543,40.812-9.412,43.161-16.405,45.795
		c-4.124,1.554-6.622-0.938-9.181-3.62c-26.522-27.799-9.837-47.629-27.525-52.163c-25.203-6.46-54.45-33.835-62.651-65.565
		c-0.946-3.659-2.718-4.225-6.228-2.754c-24.283,10.179-48.303,20.883-67.351,39.758c-52.915,52.433-67.68,118.645-62.835,149.286
		c2.457,15.534,2.886,31.621,8.506,46.577c29.858,79.458,11.473,39.219,87.708,32.087
		C178.942,970.582,200.604,968.199,222.856,959.3z M2386.252,997.839c37.675,7.828,75.471,13.139,118.195,36.433
		c6.379,3.478,7.183,0.323,19.65-19.118c34.544-53.871,24.565-128.148-0.357-182.139c-19.086-41.347-51.87-66.671-91.732-84.817
		c-8.435-3.84-10.534-2.954-14.657,5.333c-12.296,24.714-45.725,45.03-60.643,50.081c-20.167,6.827,5.452,31.515-33.011,57.43
		c-3.129,2.108-6.401,4.216-7.442,8.257c-0.642,2.49-0.854,5.928-4.221,5.567c-8.063-0.863-3.738-20.327-7.99-30.847
		c-2.969-7.346-7.551-14.065-9.941-21.81c-1.753-5.68-3.971-3.121-27.189-5.6c-3.168-0.338-7.273-0.649-8.604,3.166
		c-4.125,11.82-8.531,23.733-9.087,36.321c-1.518,34.363,10.123,71.042,36.975,94.815c14.751,13.06,32.604,20.961,49.917,29.798
		c21.604,11.026,49.555-38.021,67.713-55.257c36.841-34.971,95.794-55.747,85.611-40.896c-13.74,20.039-2.213,46.638-36.792,81.603
		C2434.718,984.287,2411.844,994.016,2386.252,997.839z M2381.773,1005.747c-0.448,8.723,26.949,21.527,9.173,56.14
		c-4.406,8.581-11.117,15.304-16.138,23.305c-1.665,2.653-2.992,5.775-6.772,5.205c-4.136-0.623-5.479-4.669-5.246-7.553
		c0.805-9.951-5.274-16.551-10.736-23.161c-14.763-17.868-27.914-44.734-17.349-66.277c2.562-5.224-1.06-1.068-39.593-25.721
		c-51.377-32.871-63.12-95.363-46.489-148.338c2.06-6.56-0.499-7.856-5.084-9.558c-21.606-8.022-42.458-17.374-59.201-33.897
		c-1.783-1.759-3.575-3.372-5.885-0.607c-4.427,5.298-9.062,10.699-10.224,17.624c-7.71,45.949-11.349,74.552,4.018,134.706
		c11.999,46.97,37.002,87.031,51.87,101.383c41.661,40.214,75.774,70.41,142.115,69.38c44.062-0.685,99.864-18.142,130.256-49.076
		c3.365-3.426,5.047-5.057-0.269-8.799C2461.351,1015.957,2406.08,1010.742,2381.773,1005.747z M223.36,968.038
		c-5.738,0.552-29.843,9.461-66.674,12.355c-19.111,1.502-37.157,6.885-54.802,14.034c-4.038,1.636-5.946,3.218-2.771,7.636
		c27.531,38.309,72.61,51.8,119.686,55.196c83.746,6.04,155.299-30.702,196.128-115.925c16.498-34.435,25.089-91.968,33.235-117.213
		c4.336-13.436,3.459-27.088,5.047-40.623c0.428-3.643-0.736-7.058-2.543-10.195c-15.4-26.734-15.748-30.867-22.954-24.748
		c-16.286,13.828-34.633,23.911-55.439,29.143c-3.914,0.984-4.478,2.543-3.841,6.436c12.515,76.424-21.319,166.987-99.892,170.222
		c-5.264,0.217-6.598,2.395-4.71,7.36c16.489,43.36-32.233,60.389-36.269,79.489c-0.496,2.348-0.149,4.902-3.755,4.718
		c-3.219-0.164-3.554-2.525-4.145-4.872C209.802,1001.867,207.782,1001.416,223.36,968.038z M201.259,690.483
		c0.673,3.972,3.622,5.421,7.47,4.601c9.699-2.069,22.127,0.572,23.52-2.215c1.72-3.442-22.844-32.545-14.029-37.813
		c5.632-3.366,4.928,3.696,19.659,10.46c9.054,4.158,18.925,3.976,28.357,6.039c4.936,1.08,5.735-0.826,5.974-4.9
		c1.346-22.858,13.862-29.674,48.066-62.333c1.723-1.645,2.849-3.994,5.738-2.979c2.797,0.983,2.726,3.528,2.96,5.91
		c3.386,34.584,9.227,47.454,3.997,68.232c-2.159,8.58,12.818-1.034,28.864,4.555c4.744,1.653,6.477-0.416,7.109-4.78
		C392.53,512.625,174.262,531.119,201.259,690.483z M2254.931,690.981c0.979,16.254,9.825,22.354,25.27,17.646
		c4.607-1.404,6.233-3.632,5.117-8.887c-5.364-25.253,3.308-45.682,5.004-61.549c0.563-5.265,4.347-7.652,8.925-5.27
		c30.896,16.074,50.139,32.027,51.06,66.972c0.245,9.306,0.843,9.357,10.535,8.763c9.918-0.608,19.96-0.612,29.499-3.845
		c7.352-2.492,12.613,0.727,12.839,8.651c0.357,12.515-2.744,14.857,0.709,16.849c7.64,4.407,13.598,2.344,16.347-6.105
		c6.775-20.823,5.748-76.44-22.144-101.067C2336.433,568.697,2248.657,586.779,2254.931,690.981z M1981.107,612.003
		c-13.057,9.193-29.557,2.464-41.381,24.385c-10.901,20.211-20.568,20.491-30.235,41.934c-6.631,14.708,1.545,30.512,22.513,31.327
		c43.532,1.691,53.058,17.681,84.471,25.06c13.696,3.217,28.132-5.832,24.764-34.803c-0.928-7.979-3.349-15.824-2.595-23.955
		c3.708-39.999-27.968-63.632-27.213-50.956c0.811,13.576-1.297,26.924-2.994,40.315c-0.413,3.264-0.813,6.253-3.891,8.443
		c-2.362-3.594-0.467-6.557,0.119-9.369c6.056-29.073-5.959-91.474-36.511-14.649c-1.485,3.733-2.312,8.49-8.074,11.507
		C1964.905,642.916,1972.887,627.555,1981.107,612.003z M667.007,648.3c-1.64-1.045-2.262-1.21-2.379-1.549
		c-7.043-20.385-19.419-37.795-30.985-55.657c-3.662-5.656-5.29-11.061-11.708-8.837c-2.627,0.91-2.043,1.76-3.097,11.634
		c-3.836,35.921-7.001,29.135,2.555,62.201c0.479,1.659,1.176,3.592-1.062,4.095c-1.684,0.378-1.98-1.688-2.473-2.923
		c-12.866-32.248-8.869-36.744-8.077-65.301c0.048-1.726,1.158-4.249-1.187-5.021c-2.281-0.752-2.932,1.938-4.09,3.26
		c-26.844,30.665-13.362,64.984-18.603,77.884c-2.245,5.525-3.163,11.31-4.01,17.206c-1.091,7.598,0.858,13.876,7.01,18.083
		c14.066,9.619,24.591-19.473,63.877-20.6c44.449-1.275,48.74,2.493,56.44-10.769c2.787-4.8,2.572-9.235-0.495-13.273
		c-4.854-6.393-8.967-13.427-15.367-18.575c-14.916-11.998-13.544-43.362-45.086-62.14c-3.282-1.954-6.434-1.422-9.193,1.003
		c-2.792,2.455-2.737,2.316,17.578,37.257C662.148,625.724,667.094,635.726,667.007,648.3z M1627.806,675.866
		c0.888,0.025,1.777,0.049,2.665,0.074c-1.034,9.714,2.983,19.238,0.134,28.969c-1.288,4.398,0.051,6.214,4.482,6.456
		c4.699,0.256,9.674,1.945,14.002,0.875c5.288-1.307,3.443-8.202,6.291-11.859c0.616-0.791,12.276-29.926,14.189-39.09
		c5.141-24.615-21.598-38.78-38.135-29.403c-28.579,16.206-53.981,7.914-61.845,10.942c-26.383,10.155-31.599,32.994-17.568,54.971
		c9.374,14.683,24.781,23.177,37.934,33.905c5.796,4.728,6.863-3.477,10.418-5.119c2.82-1.302,2.188-4.225-0.076-6.479
		c-8.136-8.102-9.611-19.929-16.087-28.976c-2.512-3.51,1.735-5.878,3.25-1.573c4.434,12.6,29.955,45.017,35.283,13.156
		C1624.244,693.734,1626.089,684.811,1627.806,675.866z M1547.164,820.701c5.062-3.208,27.58-27.19,44.588-34.76
		c3.292-1.466,5.222-4.364,2.161-7.203c-2.498-2.317-2.65-9.593-7.976-6.344c-8.71,5.315-19.411,4.347-27.836,10
		c-3.487,2.339-5.756-1.722-1.294-3.354c9.583-3.503,17.156-11.085,27.348-13.355c7.911-1.762,3.426-13.509-5.66-13.66
		c-4.573-0.076-8.864-1.455-13.235-2.491c-1.669-0.395-3.528-0.915-3.321-2.99c0.234-2.338,2.363-1.964,3.937-1.824
		c5.861,0.519,11.87-0.524,17.578,1.429c4.99,1.708,6.804-4.447,4.466-6.952c-5.874-6.292-14.612-10.613-39.429-29.047
		c-11.469-8.519-38.634-6.749-43.145,6.585c-7.421,21.937,0.212,26.619,0.416,59.786c0.042,6.83-1.39,13.536-0.625,20.462
		C1507.416,817.624,1526.088,834.057,1547.164,820.701z M971.193,839.154c-3.299-51.611,3.379-54.438-4.124-55.952
		c-3.315-0.669-6.403-0.539-7.871,2.912c-1.596,3.751-39.039,47.066-16.831,68.557c18.178,17.592,35.163,2.785,50.958,3.356
		c18.014,0.651,35.006-4.476,51.913-9.811c6.042-1.907,9.478-5.844,9.088-12.652c-0.889-15.533,2.86-18.406-4.724-30.781
		c-7.472-12.194-19.644-19.012-30.094-27.76c-4.697-3.932-14.201-1.819-18.232,2.8c-3.243,3.716,2.081,4.121,4.226,15.567
		c0.353,1.883,0.569,4.129-1.638,4.917c-4.051,1.446-10.442-19.374-18.983-16.331c-2.277,0.811-4.872,1.854-4.738,4.628
		c0.453,9.465-3.73,18.016-5.062,27.144C973.943,823.546,975.866,831.828,971.193,839.154z M1594.259,833.311
		c-2.258-5.632-1.643-5.098,9.217-38.211c0.586-1.788,1.741-3.681-0.116-5.219c-1.912-1.583-4.079-0.919-5.954,0.252
		c-17.943,11.204-20.782,9.251-40.158,32.918c-11.429,13.96-1.623,37.953,15.804,40.816c23.395,3.843,36.272,1.917,47.628,9.261
		c33.4,21.6,58.747-2.714,54.462-17.171c-4.488-15.142-10.276-30.039-18.756-43.473c-2.559-4.054-5.637-11.327-12.257-8.5
		c-12.306,5.255-1.922,33.304-10.381,31.695c-2.212-0.42-1.357-2.693-1.163-4.182c0.963-7.401-0.978-14.626-1.176-21.951
		c-0.084-3.104-1.46-5.41-4.068-7.04c-8.566-5.351-11.197-5.096-19.224,0.87C1605.347,805.435,1605.878,805.338,1594.259,833.311z
		 M988.318,683.33c-0.202,14.734,17.557,18.039,19.97,13.995c6.052-10.145,15.138-18.297,19.402-29.625
		c0.689-1.831,1.039-5.141,3.702-4.266c3.643,1.196,0.526,8.014-1.014,11.51c-12.21,27.726-21.47,27.872-9.067,36.66
		c5.516,3.908,5.014-3.285,11.389-10.463c28.371-31.946,37.422-22.149,37.457-39.106c0.035-16.767-12.651-31.506-30.506-32.245
		c-18.216-0.754-34.777-5.407-51.1-13.19c-19.11-9.112-40.059,0.979-37.764,30.947c1.134,14.802,10,27.495,12.099,42.11
		c0.514,3.577,1.347,7.13,6.599,6.058c13.309-2.717,4.486-0.944,17.243-40.595c0.523-1.624,0.639-4.623,3.019-4.032
		c2.708,0.673,1.909,3.744,1.263,5.514C987.523,666.144,988.441,674.353,988.318,683.33z M1065.564,734.369
		c-1.362,3.463-0.667,2.976-32.069,7.698c-2.88,0.433-5.579,0.66-6.489,4.31c-2.437,9.775,38.853,19.637,36.558,25.677
		c-1.891,4.975-29.597-6.857-35.861-9.91c-4.309-2.1-6.1-0.115-8.088,2.752c-4.841,6.981,12.529,5.34,48.724,42.693
		c7.365,7.6,31.922,3.468,36.531-6.429c11.874-25.499,0.614-42.79,2.251-74.207c2.431-46.622-97.112-23.435-78.601,5.875
		c2.415,3.824,6.682,1.84,10.435,1.667C1047.604,734.096,1056.284,734.369,1065.564,734.369z M1336.882,338.026
		c4.797,5.819-0.819,8.029-1.993,27.655c-0.39,6.523,0.872,13.255-2.705,19.439c-1.132,1.957-0.071,3.895,2.058,5.371
		c12.875,8.927,13.805,14.103,18.719,8.082c30.264-37.084,17.318-71.662-1.416-79.728c-5.068-2.182-10.301-0.382-15.459-1.017
		c-15.021-1.847-30.097-3.259-45.161-4.738c-25.028-2.458-35.246,38.106-21.233,56.753c4.514,6.007,9.785,11.543,13.266,18.379
		c3.332,6.542,20.474,5.989,17.105-2.422c-5.639-14.074-5.191-29.217-7.484-43.879c-0.316-2.02-0.728-4.706,1.987-5.732
		c1.694,0.852,1.748,2.146,1.733,3.266c-0.196,14.845,5.637,28.066,10.966,41.45c2.21,5.55,6.701,5.874,11.632,5.961
		c4.909,0.086,5.935-3.665,6.649-6.981c1.891-8.779,5.59-17.025,7.023-25.962C1333.369,348.93,1333.737,343.625,1336.882,338.026z
		 M932.614,500.846c-7.891,1.215-8.312,2.397-4.561,9.701c15.948,31.056,50.18,43.966,82.109,51.508
		c13.523,3.194,26.82,1.665,40.249,0.902c9.657-0.549,13.511-7.716,12.628-13.16c-0.498-3.071-4.364-2.764-6.685-2.419
		c-20.818,3.086-38.912-4.891-56.799-13.7c-1.846-0.909-5.35-1.767-3.747-4.793c1.351-2.55,3.872-0.329,5.659,0.419
		c37.103,15.536,2.537,1.095,61.803,13.696c1.817,0.386,4.196,1.386,4.893-1.08c1.38-4.883,3.575-9.8-0.891-14.643
		C1028.491,485.217,989.938,492.017,932.614,500.846z M1679.545,698.471c1.739,3.073,0.545,4.363-0.255,5.255
		c-4.485,5.002-6.682,11.439-10.693,16.688c-2.038,2.668-1.853,4.409-0.249,7.481c3.612,6.917,8.242,8.685,15.655,6.524
		c4.238-1.236,8.782-1.684,13.116-2.923c1.936-0.554,5.032-1.36,5.736,0.835c2.032,6.331-31.786,2.693-22.162,24.309
		c1.92,4.312,2.963,1.418,14.035-1.323c22.864-5.659,51.672,2.5,57.438-12.218c3.498-8.93,4.13-18.715,0.592-28.494
		c-5.209-14.396-10.82-9.526-38.482-51.386c-11.648-17.626-39.176-5.515-55.064,43.798c-0.966,2.997-3.708,7.265-0.712,9.038
		C1662.27,718.285,1667.454,711.333,1679.545,698.471z M1719.706,760.712c-0.015-0.205-0.031-0.409-0.046-0.614
		c-11.907,0.777-25.393,0.782-34.639,6.188c-7.708,4.506,0.536,5.812,11.822,11.786c2.743,1.452,3.252,4.665-1.29,3.954
		c-4.671-0.732-9.319-1.623-13.963-2.517c-6.392-1.23-6.627,5.049-9.514,7.965c-2.726,2.753,0.584,4.509,2.006,6.495
		c10.407,14.536,19.28,15.494,16.195,19.193c-1.442,1.728-3.465-0.321-4.929-1.376c-5.18-3.732-10.689-7.013-15.24-11.612
		c-1.76-1.779-4.165-4.025-6.752-1.684c-3.636,3.29,1.962,4.556,9.078,25.976c3.389,10.199,5.707,20.876,14.243,28.737
		c10.143,9.34,19.401,9.962,29.51,0.861c17.32-15.594-0.61-16.129,34.426-48.58c20.122-18.638,6.111-47.96-16.044-46.017
		C1729.617,759.9,1724.661,760.297,1719.706,760.712z M470.305,402.701c-16.785,5.794-44.325,105.588-49.698,127.649
		c-6.194,25.435-3.073,98.201-2.519,107.427c1.123,18.708,6.138,36.805,7.615,55.44c0.808,10.189,4.812,19.739,7.559,29.515
		c1.883,6.701,4.178,6.837,9.101,2.062c4.703-4.561,5.772-9.906,5.274-16.173c-3.558-44.785-20.647-167.589,16.961-284.79
		C466.676,417.354,468.167,410.689,470.305,402.701z M1223.191,446.379c-0.067-2.271,2.191-2.698,4.177-2.916
		c8.718-0.956,17.409-2.421,26.151-2.829c15.83-0.74,15.838-0.481,17.509-15.861c0.293-2.693,0.079-4.905-2.511-6.809
		c-10.235-7.526-18.906-17.268-31.243-21.793c-1.495-0.548-3.751-1.042-2.501-3.204c0.882-1.525,3.118-1.175,4.61-0.519
		c10.122,4.451,21.237,6.866,29.711,14.745c1.773,1.649,3.932,5.589,6.885,2c2.526-3.071,5.823-6.382,1.974-11.229
		c-19.79-24.923-49.803-33.156-58.397-25.341c-7.281,6.622-13.328,14.283-13.04,25.563c1.327,52.047-11.417,47.826-6.757,68.043
		c4.143,17.977,20.23,25.781,33.331,15.627c10.78-8.355,22.526-13.806,35.557-16.953c2.239-0.541,4.827-1.197,4.349-3.667
		c-3.758-19.4-7.644-12.263-11.919-12.445C1230.409,447.489,1223.323,450.818,1223.191,446.379z M1612.954,546.247
		c0.142,1.48,1.026,1.796-2.538,4.055c-11.342,7.188-24.091,9.348-37.159,10.524c-2.606,0.234-6.614-1.561-7.546,1.627
		c-0.908,3.107,2.95,5.023,4.987,7.222c6.153,6.643,40.846,0.906,46.658,0.163c30.277-3.87,55.68-17.562,75.915-40.482
		c6.063-6.868,5.877-7.947-2.455-11.256c-77.862-30.924-153.732,20.623-130.206,31.354
		C1586.39,561.213,1599.937,548.567,1612.954,546.247z M1399.666,452.791c-9.389,4.436-12.093-2.609-31.479-4
		c-2.484-0.178-6.057-2.079-7.498,1.697c-1.137,2.98-0.565,6.097,1.621,8.69c19.526,23.166,27.342,15.689,44.238,24.584
		c7.304,3.845,14.601,3.97,21.377-0.788c7.01-4.922,6.039-12.091,4.652-19.353c-4.919-25.75-2.167-19.633,1.628-54.047
		c1.65-14.97-12.141-31.296-42.101-25.428c-14.145,2.771-24.242,12.091-34.236,21.498c-2.9,2.73-1.385,7.018,2.797,7.966
		c6.467,1.466,25.687-10.332,27.459-5.49c1.312,3.581-1.133,0.337-21.528,11.522c-3.622,1.986-6.072,4.186-4.761,8.197
		c1.445,4.424-0.741,10.763,7.055,12.136C1379.494,441.842,1388.075,448.809,1399.666,452.791z M920.166,647.429
		c-9.462-4.932-16.503-2.367-22.366,6.818c-19.175,30.039-26.501,30.695-34.53,47.633c-8.578,18.099-5.939,23.79,12.828,29.965
		c18.628,6.129,39.112,4.847,56.822,14.491c3.45,1.878,4.203-3.505,1.232-4.298c-12.942-3.453-17.55-15.944-26.157-24.076
		c-1.1-1.04-3.978-2.445-1.926-4.429c1.797-1.738,3.698,0.541,4.644,1.865c5.275,7.385,13.718,10.797,20.285,16.534
		c1.792,1.566,3.919,3.448,5.317-0.544c7.743-22.101,1.434-23.241-10.429-36.213c-1.342-1.467-4.187-2.861-1.969-5.111
		c4.882-4.954,7.981,5.222,14.529,12.278c8.37,9.019,16.945,3.109,16.571-6.25C953.973,669.993,943.102,659.384,920.166,647.429z
		 M919.33,800.601c7.391-9.227,13.356-19.546,22.825-26.838c1.942-1.496,4.953-2.381,2.682-5.981
		c-2.055-3.258-4.597-4.104-7.725-2.039c-7.286,4.809-15.536,5.293-23.827,5.554c-1.909,0.06-5.161,1.341-5.368-1.539
		c-0.213-2.953,3.092-2.979,5.428-3.129c6.767-0.435,12.794-3.298,18.924-5.762c3.717-1.494,4.284-3.59,0.311-5.634
		c-20.312-10.452-20.614-8.293-53.212-12.847c-16.852-2.355-33.174,7.541-19.858,29.014c7.327,11.815,16.842,22.308,21.89,35.502
		c3.312,8.656,7.817,16.713,12.021,24.928c4.36,8.519,11.547,12.276,20.811,12.058c15.173-0.356,14.614-31.198,34.778-52.721
		c0.939-1.002,7.814-11.071,3.477-14.622c-2.738-2.242-4.22,0.272-5.893,1.822C937.991,786.332,927.593,792.145,919.33,800.601z
		 M2174.416,444.194c21.268,172.873,3.869,271.849,0.05,307.679c-0.706,6.622,3.691,6.789,5.414,3.669
		c2.839-5.143,6.814-10.034,8.167-15.557c17.892-73.036,32.997-85.897,5.766-238.991
		C2190.284,481.152,2182.595,462.605,2174.416,444.194z M1223.253,511.081c0.636,19.385,11.273,13.435,30.265,40.042
		c16.162,22.643,45.751,19.035,51.602-2.188c5.211-18.9,1.115-38.269,3.787-57.249c0.33-2.343-0.798-4.212-3.179-4.921
		c-2.372-0.706-3.268,1.029-4.299,2.727c-7.144,11.755-13.687,23.77-16.809,37.332c-0.422,1.833-0.71,4.159-3.356,3.393
		c-2.137-0.619-1.475-2.561-1.059-4.211c7.234-28.65,13.313-30.661,13.859-40.007c0.245-4.181-3.732-5.117-6.135-7.074
		c-2.262-1.842-3.708,0.469-5.269,1.932c-9.433,8.848-21.554,14.756-28.606,26.23c-0.769,1.251-2.119,2.043-3.565,0.74
		c-1.497-1.349-0.488-2.901,2.891-7.232c16.472-21.113,28.097-26.059,26.26-29.793c-1.174-2.387-3.23-1.075-5.02-0.746
		C1241.551,476.137,1229.141,489.295,1223.253,511.081z M1276.114,435.941c0.39,23.232,20.216,49.489,46.307,42.902
		c8.481-2.141,17.494-3.577,22.938-11.424c21.806-31.427,0.251-52.6-1.883-56.502c-9.24-16.898-21.934-17.485-38.838-15.693
		c-9.748,1.033-16.846,8.052-22.443,15.824C1276.694,418.689,1277.566,428.108,1276.114,435.941z M1765.509,631.505
		c-8.957-21.202,29.216-93.488,29.722-115.881c-16.721,14.415-45.314,34.244-46.276,84.475c-0.277,14.445,1.807,28.776,3.136,43.137
		c0.421,4.543,2.446,4.808,5.399,2.071c15.125-14.015,33.003-24.781,43.441-44.078c14.917-27.58,17.061-55.014,5.262-83.753
		c-0.723-1.762-0.677-5.099-3.32-4.888c-2.933,0.234-2.539,3.583-3.187,5.734c-17.644,58.554-22.157,54.391-30.594,93.505
		C1767.799,617.823,1769.184,624.385,1765.509,631.505z M2171.546,534.813c-21.353,28.952-27.567,75.918-28.634,111.844
		c-0.975,32.837-1.714,39.123,14.011,79.471c2.242,5.753,4.664,11.588,9.218,16.729
		C2175.436,712.399,2179.553,556.5,2171.546,534.813z M1902.341,1109.711c8.667-42.999,34.764-51.384,25.486-99.84
		c-0.3-1.566-0.729-3.187-3.175-3.46c-9.526,29.874-20.918,31.599-29.565,55.274c-4.38,11.992-22.524,30.198,2.374,70.454
		c5.305,8.578,10.333-1.23,20.469-6.408c35.133-17.948,37.757-113.132,13.596-125.423c16.521,33.664-14.711,80.094-19.04,88.917
		C1909.443,1095.425,1910.136,1103.338,1902.341,1109.711z M1372.91,501.373c-5.235-0.006-7.121-2.295-8.565-4.127
		c-4.926-6.249-11.917-10.075-17.383-15.632c-1.173-1.192-2.273-2.786-4.149-1.557c-2.3,1.508-1.146,3.194,0.101,4.781
		c7.056,8.979,3.622,26.739,10.711,38.589c1.782,2.979-2.333,4.44-3.639,1.671c-5.962-12.646-13.679-41.877-19.836-38.999
		c-3.05,1.425-1.701,4.633-0.717,6.935c5.717,13.368-1.406,21.941,3.706,46.836c6.132,29.867,34.18,30.493,52.992,6.336
		c3.983-5.115,8.137-9.743,14.018-12.786c10.995-5.689,13.48-12.214,7.952-23.498c-12.863-26.254-28.079-20.315-46.346-38.925
		c-2.107-2.147-3.568-6.425-7.737-2.473c-3.688,3.496-1.99,6.105,1.058,8.815C1362.386,483.838,1365.767,493.066,1372.91,501.373z
		 M1064.284,333.018c0.22-9.456-1.445-15.936-5.366-21.827c-22.325-33.541-53.875-53.097-92.887-61.427
		c-3.656-0.781-4.883,0.39-4.447,3.932c2.656,21.569,9.474,41.532,23.398,58.526c12.292,15.003,28.734,31.409,73.05,27.233
		c1.325-0.125,3.094,0.484,3.649-1.308c0.548-1.771-1.167-2.412-2.249-3.174c-22.209-15.632-41.632-49.815-81.159-64.374
		c-3.692-1.36-1.929-4.544,0.859-3.681C1009.721,276.386,1022.587,292.38,1064.284,333.018z M1050.738,351.509
		c-56.973,17.57-86.621,66.374-85.712,68.222c1.483,3.014,5.647,0.863,8.507,0.715c9.603-0.495,18.533,3.805,28.163,3.281
		c29.39-1.599,76.881-18.543,81.639-48.068c1.431-8.88-4.666-5.702-28.681,3.481c-16.167,6.183-31.593,13.792-44.601,25.562
		c-1.346,1.218-3.049,3.18-4.828,1.727c-2.996-2.447,0.941-6.807,3.825-9.339c20.192-17.73,37.307-21.674,69.387-34.569
		c7.583-3.048,5.932-8.004-0.329-10.45C1069.521,348.717,1054.51,350.346,1050.738,351.509z M736.173,435.56
		c-5.179-17.225-12.036-33.557-22.198-48.492c-10.023-14.731-20.12-39.907-22.382-25.808c-7.267,45.289,21.927,66.228,34.669,88.702
		c5.572,9.827,11.235,19.605,18.351,29.277c17.27-36.461,23.738-72.298-17.986-120.787c-6.353-7.383-14.589-13.233-26.001-13.656
		C709.817,376.745,735.81,401.187,736.173,435.56z M1020.536,738.375c-2.556-49.547-79.032-46.572-76.903-3.304
		C946.637,796.14,1022.971,785.582,1020.536,738.375z M1657.38,727.442c-20.255-15.576-45.915-9.864-59.038,17.506
		c-12.141,25.322,11.639,37.843,19.492,43.785c12.577,9.518,25.536,8.19,38.124,1.796
		C1676.234,780.228,1678.643,743.793,1657.38,727.442z M1556.634,377.891c1.663,4.763,0.649,9.629,3.345,13.446
		c29.568,41.871,75.222,57.005,121.538,48.519c-34.746-29.076-18.461-54.222-104.726-71.027c-3.798-0.74-7.633-2.153-12.21,1.111
		c20.377,12.87,46.882,16.206,60.766,39.13C1605.83,391.12,1580.171,387.227,1556.634,377.891z M1338.188,139.382
		c5.184,15.425,8.779,31.383,22.499,42.324c18.901,15.073,39.921,21.717,63.542,15.729c44.213-11.208,60.435-76.901,51.596-82.823
		c-3.552-2.38-4.221,3.444-7.224,4.106c-1.189,0.262-2.132,1.754-3.131,2.743c-17.732,17.55-35.47,33.954-62.238,38.014
		c-29.14,4.419-37.242-4.971-50.068-14.929c22.136,30.673,52.25,30.67,84.647,21.56c-19.521,12.799-40.37,12.112-61.621,7.135
		C1357.461,168.853,1346.689,155.486,1338.188,139.382z M678.571,336.021c-23.624-15.191-110.328,18.133-117.634,70.652
		c-0.51,3.67-0.337,5.803,4.202,3.57c50.868-25.019,81.013-7.603,101.872-36.6c5.398-7.504,11.158-14.689,14.593-23.363
		c0.721-1.821,3.617-3.284,1.786-5.547c-1.813-2.241-4.857-2.457-7.22-1.315c-4.901,2.367-10.346,2.945-15.178,5.785
		c-12.623,7.418-24.904,15.478-38.824,20.587c-34.589,12.696-22.897,15.802-33.852,13.813
		C616.654,364.316,644.292,344.698,678.571,336.021z M155.37,868.249c12.839,6.845,9.179,18.511,26.894,32.579
		c26.443,20.999,20.637,21.484,48.69,37.777c2.21,1.283,5.117,3.575,7.119,1.696c2.554-2.396-0.416-5.292-1.747-7.409
		c-40.5-64.428-54.495-57.661-86.133-82.155c-3.369-2.608-8.271-3.403-12.595-4.556c-8.155-2.175-1.984,6.721,0.514,19.951
		c4.936,26.147,18.336,49.835,27.173,57.662c30.416,26.938,64.89,31.901,73.681,26.121
		C208.488,937.814,179.458,918.031,155.37,868.249z M455.551,701.521c11.646-19.808,27.51-40.125,24.135-95.947
		c-3.685-60.946-16.47-85.307-24.436-104.332C445.859,528.38,446.044,667.969,455.551,701.521z M1175.556,115.157
		c-3.779,6.543-0.998,13.857,0.245,20.706c10.336,56.945,92.756,96.249,129.148,13.067c1.787-4.084,3.904-9.733,2.095-16.383
		c-14.403,19.097-24.005,37.91-45.411,42.873c-17.832,4.135-50.003-8.442-59.518-18.944c3.395-1.902,5.384-0.223,7.328,0.956
		c19.35,11.736,65.581,20.519,84.297-20.759c-9.087,6.972-19.443,19.978-50.106,16.177
		C1215.867,149.408,1193.676,137.07,1175.556,115.157z M1965.455,365.917c12.192,3.73,19.656,2.95,66.481,37.175
		c6.425,4.696,15.528,6.064,18.798,14.834c-0.941-1-106.415-66.809-88.115-36.636c31.849,52.51,82.387,38.425,120.88,63.889
		c0.185,0.122,0.766-0.354,2.015-0.973c-9.849-27.788-25.128-51.217-52.12-65.136
		C2012.125,368.102,1989.614,362.267,1965.455,365.917z M662.576,988.021c-8.562,2.093-26.62,40.495-4.433,78.642
		c8.385,14.416,18.498,27.444,29.522,39.875c4.687,5.285,6.2,5.326,9.168-1.477c25.588-58.646-18.058-98.192-20.692-126.191
		c-4.072,1.802-5.271,4.976-6.102,8.049c-12.97,47.964,7.106,42.938,13.297,82.493c-2.426,0.101-2.807-1.586-3.2-2.763
		c-10.467-31.394-25.118-41.523-20.409-62.167C660.89,999.387,662.096,993.995,662.576,988.021z M398.834,1077.406
		c-5.113,16.416-40.242,40.288-51.46,68.8c-0.993,2.523-4.227,5.078-1.971,7.663c2.286,2.62,5.91,0.855,8.67-0.138
		c45.86-16.503,60.432-74.747,70.308-99.659c4.212-10.626-9.208-2.92-22.014,1.659c-37.998,13.587-61.331,39.712-62.039,81.143
		c-0.028,1.632-0.14,3.723,1.79,4.222c1.589,0.411,2.266-1.349,2.896-2.611C355.679,1117.108,381.121,1093.425,398.834,1077.406z
		 M2384.498,985.877c7.405,4.004,14.412,1.52,20.343-0.649c41.96-15.343,65.982-38.886,71.404-90.043
		c0.352-3.325,0.289-6.696-4.832-4.643c-78.745,31.572-76.971,73.288-112.452,94.376c12.079,2.263,54.954-13.888,79.691-54.249
		c3.514-5.734,22.015-32.836,26.123-28.936c3.18,3.018-2.138,1.914-22.35,32.233C2409.924,982.72,2393.782,977.49,2384.498,985.877z
		 M822.895,497.908c-5.362,7.351-5.862,16.17-7.969,24.492c-10.428,41.175,12.988,69.309,43.81,97.885
		c1.857,1.722,3.419,4.874,6.199,3.965c4.323-1.414,8.398-50.839-2.356-85.464c-6.354-20.459-27.12-41.845-29.686-40.691
		c-1.385,0.623-1.616,2.086-1.016,2.965c0,0,7.705,41.107,20.526,80.796c1.116,3.456,2.524,7.04,1.129,11.111
		C839.084,562.766,825.58,532.292,822.895,497.908z M1574.682,355.187c2.08,0.986,53.284-5.528,89.133-53.7
		c5.346-7.183,9.858-15.601,11.92-24.788c1.036-4.613,0.028-6.019-5.023-4.517c-16.953,5.04-66.725,7.242-104.976,64.395
		c-1.881,2.81-9.214,15.451-0.359,12.604c21.091-6.781,59.814-57.058,87.482-58.509
		C1622.474,306.904,1599.771,332.238,1574.682,355.187z M2255.784,1182.292c4.058-40.272-11.541-56.116-71.487-85.762
		c-3.279-1.621-3.736,0.183-3.362,2.798c3.833,26.781-3.128,70.454,62.459,93.231c5.157,1.791,6.463-0.213,4.647-5.048
		c-6.928-18.443-9.436-18.403-50.924-65.084c-4.853-5.46-6.361-9.219-6.295-15.704
		C2210.445,1140.438,2235.422,1145.757,2255.784,1182.292z M40.208,1061.309c-8.091,3.911-19.399,27.58-10.879,58.692
		c12.137,44.323,45.338,56.1,55.331,68.035c-4.834-30.12-0.736-85.607-30.571-126.278c-0.984-1.342-1.405-4.1-4.019-2.858
		c-1.952,0.927-0.488-0.507-0.306,28.6c0.234,37.483,22.594,66.401,26.102,86.807C56.138,1139.507,37.565,1104.314,40.208,1061.309z
		 M2549.859,1116.569c-24.473,35.42-46.178,58.917-44.328,102.998c0.208,4.958,1.489,8.083,6.3,3.859
		c10.385-9.118,24.142-13.343,33.722-23.469c13.507-14.276,39.494-29.456,14.508-87.454c-5.985,33.509-21.18,60.824-39.563,86.687
		C2532.975,1172.581,2548.299,1147.085,2549.859,1116.569z M667.774,582.03c28.215,40.354,15.165,38.598,31.772,54.458
		c5.71,5.453,10.094,11.917,15.018,17.946c6.73,8.24,5.69,16.509-2.209,23.892c-6.085,5.687-8.612,5.886-5.138,9.01
		c22.212,19.973,46.912,6.294,44.527-5.627c-4.274-21.363-18.366-22.094-25.014-47.907c-5.925-23.004-22.132-36.639-40.836-48.45
		C680.653,582.043,674.931,580.323,667.774,582.03z M1361.568,728.822c0.631-0.2,1.262-0.4,1.893-0.601
		c0-12.131-3.363-13.196-6.961-22.509c-4.006-10.368-12.646-62.153-23.271-83.694c-2.574-5.218,2.063-6.515,4.193-2.766
		c11.894,20.929,7.424,29.16,16.3,39.471c13.235,15.376,5.423,20.037,17.074,62.729c8.396,30.766,27.378-75.614-35.722-115.316
		c-1.892-1.19-3.757-3.843-6.145-2.593c-2.433,1.274-1.451,4.368-1.232,6.53C1333.282,665.062,1323.055,683.72,1361.568,728.822z
		 M2121.008,968.139c-15.209,5.756-51.208,4.132-85.18,21.942c-14.068,7.375-40.011,30.949-24.196,30.307
		c18.334-0.744,44.95,5.784,84.398-10.432c14.484-5.954,23.187-17.015,26.255-32.89c-26.379,20.986-58.753,23.716-89.811,30.586
		C2062.432,995.526,2096.347,992.524,2121.008,968.139z M1950.383,611.279c-60.061,14.181-51.772,36.595-63.46,54.618
		c-5.919,9.126-11.976,18.18-17.458,27.566c-9.618,16.466,9.051,36.438,15.507,29.729c3.965-4.121,9.306-5.498,13.945-8.241
		c11.648-6.887,5.702-7.372,2.997-18.995c-3.017-12.967,2.903-23.459,10.722-32.428
		C1926.635,647.469,1936.613,628.651,1950.383,611.279z M1817.116,1110.235c2.929,41.346,5.865,38.947,6.247,57.635
		c0.044,2.136-0.337,4.369,2.338,5.325c3.117,1.114,4.249-1.305,5.514-3.219c21.215-32.117,12.177-63.886-5.623-96.241
		c-5.102-9.275-20.24,20.923-23.27,30.408c-5.599,17.526-6.355,52.681,9.188,64.377c1.098,0.826,2.042,2.24,3.657,1.49
		c1.606-0.745,1.331-2.442,1.238-3.762C1813.807,1129.188,1812.062,1135.35,1817.116,1110.235z M592.095,594.127
		c-8.995,1.197-28.741,32.728-33.941,68.68c-2.416,16.706-0.157,34.103-7.891,50.065c-6.728,13.887,8.842,46.414,43.537,4.428
		c2.923-3.537,0.189-4.769-2.82-5.842c-12.479-4.452-17.964-15.231-15.819-28.39c1.514-9.286,7.377-17.429,6.106-27.435
		C578.568,634.385,582.089,614.057,592.095,594.127z M2109.703,1042.456c-3.882,4.1,10.699,65.786,11.964,71.213
		c1.672,7.176,3.195,14.706-0.113,22.236c-1.239-28.945-17.205-54.156-19.256-82.806c-8.78,41.076-9.395,81.466,24.205,106.705
		c2.501,1.879,5.156,2.218,6.224-1.244c5.919-19.178,16.732-25.451-7.933-91.632
		C2121.552,1058.231,2116.205,1049.841,2109.703,1042.456z M222.318,701.147c0-0.087,0-0.174,0-0.26
		c-19.026,0-22.012-2.063-12.609,17.409c10.945,22.666,28.854,37.568,52.091,46.494c3.552,1.364,6.356,1.65,7.536-3.096
		c8.201-32.977,18.206-37.32,9.347-38.316c-24.135-2.713-26.136-23.569-46.413-22.264
		C228.967,701.326,225.637,701.147,222.318,701.147z M1247.117,727.541c12.407-32.609-2.019-11.525,32.682-97.286
		c2.484-6.14,6.141-11.992,11.836-16.388c1.559,2.572,0.273,3.946-0.568,5.225c-24.903,37.89-17.861,72.664-32.748,103.002
		c36.774-26.914,27.366-72.928,42.469-124.275c-11.391,7.578-24.538,12.78-31.623,24.659c-11.997,20.115-21.26,36.408-24.512,68.026
		C1243.438,702.312,1241.008,714.443,1247.117,727.541z M481.091,931.959c-2.421,12.998,6.29,34.393,31.119,44.011
		c22.89,8.868,47.744,6.006,71.164,11.762c12.555,3.086-11.981-27.784-34.466-36.185c-40.528-15.144-35.383-16.936-56.669-28.994
		c-1.506-0.853-3.507-2.438-5.167-0.735c-1.796,1.844,0.298,3.446,1.173,4.971c9.739,16.98,25.454,26.053,43.176,32.357
		c8.738,3.108,17.579,5.93,26.373,8.882C528.821,964.414,501.48,957.144,481.091,931.959z M2328.607,730.661
		c7.261,0.591,19.872-24.336,8.096-53.067c-6.639-16.198-21.055-24.973-35.352-33.462c-3.338-1.982-4.281,1.031-4.672,3.254
		c-4.738,27.007-11.376,65.653,18.817,85.868c3.717,2.488,5.566,1.849,5.597-2.965c0.221-34.38-17.248-46.304-13.677-68.711
		C2315.462,684.416,2331.367,704.637,2328.607,730.661z M318.489,614.059c-26.47,22.359-55.247,40.55-29.95,82.638
		c0.739,1.23,1.504,3.474,3.651,2.374c1.573-0.806,0.707-2.526,0.484-3.865c-4.349-26.105,22.559-64.973,26.797-61.688
		c1.919,1.487-4.648,10.621-5.919,12.125c-15.696,18.568-20.923,60.374-6.722,53.208c23.977-12.099,25.805-36.485,19.321-62.669
		C322.539,621.587,326.129,607.606,318.489,614.059z M658.799,689.6c-2.838-0.05-4.519,0.802-4.314,4.054
		c0.298,4.722,0.024,9.507,0.653,14.176c3.891,28.894,28.388,27.694,57.209,23.59c15.569-2.217,26.147-28.491,12.15-28.559
		c-11.215-0.055-20.586-4.794-29.383-11.1C690.444,688.413,694.205,690.22,658.799,689.6z M2038.724,632.458
		c1.745,7.405,9.563,25.75,7.287,41.633c-2.593,18.096,12.499,45.541-11.505,65.114c-3.047,2.484-9.411,1.056-9.489,5.585
		c-0.058,3.406,3.736,6.87,5.789,10.323c3.255,5.474,3.314,8.606,9.637,8.777c18.689,0.508,31.369-14.396,27.915-33.196
		C2063.349,703.419,2071.519,654.204,2038.724,632.458z M2251.065,449.796c0.154,13.507,7.908,24.031,13.845,35.273
		c6.017,11.392,10.166-12.307,8.394-25.718c-5.389-40.789-7.375-43.644-3.749-44.012c3.894-0.395,0.969,3.623,6.357,30.872
		c2.915,14.743,4.84,29.366-0.471,43.992c-0.654,1.801-2.755,3.973,0.031,5.601c7.079,4.136,17.062-23.909,17.489-39.23
		c0.594-21.317-10.553-38.843-19.583-56.986c-1.044-2.098-2.425-2.993-4.239-0.703
		C2249.72,423.393,2250.804,426.915,2251.065,449.796z M1945.911,398.05c-2.926-15.849-2.69-16.689-4.415-17.186
		c-2.943-0.848-26.179,35.754-35.504,60.421c-5.76,15.236-10.338,30.928-15.118,46.517c-0.742,2.42-2.559,6.243,0.234,7.882
		c3.145,1.846,3.518,1.355,24.682-24.637C1938.068,443.687,1941.377,444.485,1945.911,398.05z M1961.996,731.66
		c0.622-8.929,0.075-10.227-7.989-11.63c-1.01-0.176-35.331-5.967-39.161-4.33c-21.563,9.216-23.007,9.536-23.42,13.939
		c-0.939,10.013,7.746,22.575,17.678,24.376c9.505,1.723,19.172,2.538,28.728,4.007c12.543,1.929,16.115,0.156,20.973-11.723
		C1960.767,741.503,1962.38,736.508,1961.996,731.66z M609.841,748.558c15.817,0.589,26.423-8.247,36.085-19.268
		c6.357-7.252,5.078-10.109,0.775-34.511c-0.478-2.711-1.791-5.557-5.046-4.661c-10.836,2.984-22.133,4.9-29.839,14.696
		c-5.684,7.225-8.772,16.462-16.506,22.02c-9.544,6.858-6.531,15.357,3.518,19.949C602.386,748.41,606.105,748.677,609.841,748.558z
		 M2325.728,756.758c-2.912,4.672-2.306,2.83-3.669,8.264c-9.308,37.1,8.002,38.201,3.376,67.832
		c-0.322,2.06-0.047,5.806-3.297,5.152c-2.775-0.558-1.062-3.599-0.569-5.457c3.475-13.086-18.721-41.333-7.2-69.611
		c0.696-1.709,2.336-3.487,1.28-6.245c-40.272,44.932-2.422,74.387-1.925,96.489c0.12,5.318,2.069,5.587,6.567,2.531
		C2359.742,828.906,2327.579,779.165,2325.728,756.758z M1932.107,379.265c-10.088,3.982-81.653,45.579-54.443,122.565
		c0.84,2.377,1.58,5.769,4.704,5.283c5.106-0.795,1.529-11.837,4.245-21.221c9.006-31.125,18.722-61.969,36.49-89.592
		C1926.319,391.298,1930.868,386.766,1932.107,379.265z M358.041,471.52c-15.768-36.619,5.52-64.426,5.28-89.272
		c-0.041-4.181,5.752-5.613,6.574-0.402c2.007,12.71-8.946,27.976-10.451,56.156c-1.275,23.869,11.535,38.622,11.38,26.329
		c-0.418-33.37,19.323-62.742-0.636-94.596c-2.068-3.301-3.786-3.5-5.836,0.588c-11.093,22.128-29.027,38.52-23.846,75.715
		C341.995,456.731,348.065,465.878,358.041,471.52z M1972.182,766.017c25.367,8.243,42.822,21.305,53.407,9.327
		c4.437-5.021,1.262-11.868-2.67-17.576c-6.401-9.294-11.97-19.265-25.049-21.065c-10.159-1.398-24.991-16.793-27.434-5.787
		C1967.658,743.435,1960.769,762.309,1972.182,766.017z M2394.433,741.352c-13.833,15.486-32.589,18.805-51.889,20.648
		c-2.39,0.228-6.363-1.007-5.242,3.274c7.924,30.245,7.823,31.871,13.453,30.343c24.701-6.704,51.688-24.979,60.125-47.909
		C2415.385,735.467,2398.223,737.11,2394.433,741.352z M290.354,795.202c-3.086-9.755-5.209-19.624-3.489-30.029
		c1.578-9.548,1.72-19.296,4.118-28.757c0.527-2.078,0.397-5.516-2.174-6.164c-2.323-0.585-3.145,2.492-3.953,4.354
		c-6.932,15.977-12.457,32.211-8.48,50.055c5.555,24.923,14.388,34.657,17.441,34.235c3.195-0.441,4.61-17.597,11.828-31.252
		c15.148-28.656,3.792-56.258-7.158-63.476c-1.55,2.543-1.125,4.54-0.655,6.269c5.253,19.323-5.154,25.958-6.463,48.506
		C291.059,784.297,292.582,789.691,290.354,795.202z M2372.643,1055.711c-1-0.647-2.963-1.282-3.05-4.005
		c-0.616-19.302-10.789-34.439-21.514-49.309c-1.152-1.597-2.121-4.462-4.631-3.628c-2.249,0.748-3.832,3.475-3.747,5.632
		c0.249,6.301-0.521,12.62,1.141,18.929c4.799,18.221,17.589,31.62,27.606,46.692c1.211,1.821,2.454,3.201,5.053,1.02
		c25.114-21.079,14.25-56.425-13.133-69.708c-1.033-0.501-2.31-1.134-3.312-0.152c-1.517,1.488,0.21,2.585,0.832,3.639
		C2377.266,1037.698,2374.215,1045.241,2372.643,1055.711z M2031.033,1143.71c24.505-9.94,64.45-89.407,62.472-106.909
		C2061.126,1065.988,2038.902,1100.097,2031.033,1143.71z M1189.779,222.915c-0.547-13.648-15.805-27.033-30.204-26.499
		c-9.474,0.352-18.883,11.282-18.508,21.499C1142.404,254.376,1190.954,252.222,1189.779,222.915z M1468.42,209.02
		c-28.227,7.094-22.361,48.088,7.503,44.917c8.631-0.916,13.639-6.263,18.063-13.291c4.063-6.456,7.065-12.806,3.021-19.832
		C1490.313,209.187,1484.874,204.885,1468.42,209.02z M1240.762,664.77c8.855-17.959,12.822-38.135,26.418-53.645
		c0.673-0.767,0.693-2.212,0.792-3.36c2.609-30.286,4.617-34.48-3.313-37.827c-8.109-3.423-14.381-8.843-17.915-17.133
		c-0.97-2.275-2.088-4.619-4.953-4.803C1244.228,587.131,1246.825,625.962,1240.762,664.77z M1122.177,915.265
		c0.321,0.407,0.642,0.814,0.962,1.22c69.203-43.85,126.89-144.594,122.251-168.626c-0.733-3.797-3.091-3.31-4.427-0.781
		c-16.808,31.799-25.88,61.903-64.635,112.184C1146.932,897.399,1159.533,880.082,1122.177,915.265z M235.412,998.524
		c-1.112-18.419,11.183-22.407,8.711-31.34c-0.601-2.172,1.225-5.386-1.413-6.426c-7.021-2.767-34.208,31.629-18.648,65.497
		c3.434,7.475,13.908-6.511,21.761-14.572c13.293-13.646,19.703-38.499,6.578-49.69C250.78,976.801,242.569,987.369,235.412,998.524
		z M1143.917,887.483c3.534-0.181,4.76-2.667,6.292-4.552c36.728-45.183,47.772-61.649,72.595-109.446
		c11.822-22.764,19.13-45.443,11.747-73.396C1220.154,771.326,1186.432,831.358,1143.917,887.483z M507.66,803.591
		c18.111,3.975,36.012-0.899,54.115-0.759c-17.48,7.486-36.039,8.826-54.527,11.155c30.069,17.119,45.887,3.558,82.011-16.627
		c2.726-1.523,6.338-1.823,8.987-6.43C565.753,783.723,536.994,795.723,507.66,803.591z M503.245,1010.485
		c8.172,45.693,51.778,101.894,55.765,99.47C564.157,1106.826,532.272,1027.232,503.245,1010.485z M2102.297,835.92
		c-5.039-9.991-62.583-21.705-77.736-17.437c-6.36,1.79-2.96,3.476,19.184,20.327c22.439,17.076,55.564,14.965,66.34,4.289
		c-23.025,1.949-41.402-7.673-60.217-15.862C2067.879,826.141,2083.579,838.034,2102.297,835.92z M1082.726,528.881
		c-3.297-0.183-5.521,1.946-5.352,4.437c0.573,8.445-4.156,14.765-7.563,21.668c-4.273,8.66,17.575,21.373,31.766,17.283
		C1125.347,565.419,1102.299,529.966,1082.726,528.881z M1533.357,584.193c40.486-4.086,24.173-8.391,17.658-30.888
		c-2.986-10.312-7.482-11.83-17.277-6.913c-9.094,4.565-13.42,13.252-17.567,21.62
		C1512.056,576.316,1523.877,585.312,1533.357,584.193z M771.148,1160.625c30.443-26.958,26.965-73.975,7.606-89.676
		C780.83,1116.708,762.866,1126.398,771.148,1160.625z M335.306,738.779c-3.365-5.055-13.363-13.69-20.8-8.056
		c-2.87,2.174,0.924,4.484,1.376,6.815c3.898,20.103,6.042,9.347,1.584,35.967C366.708,773.505,360.874,777.192,335.306,738.779z
		 M761.208,1157.21c-3.808-23.505,18.1-49.125,13.855-83.312c-0.657-5.287,3.057-7.804,0.574-9.242
		c-3.998-2.316-8.602,11.417-9.356,12.839c-12.001,22.645-16.411,46.551-11.192,71.881
		C755.736,1152.515,756.926,1155.675,761.208,1157.21z M487.581,1014.704c-16.993,15.693-41.649,70.645-28.055,100.251
		c0.899,1.958,0.785,5.683,3.882,4.995c7.301-1.624-1.805-16.563,3.332-32.223C467.071,1086.717,488.715,1019.523,487.581,1014.704z
		 M469.73,1110.774c22.296-18.224,33.078-61.494,22.969-82.342C480.155,1048.076,466.204,1098.09,469.73,1110.774z
		 M1460.013,889.659c0.616-0.584,1.233-1.167,1.849-1.751c-40.163-29.822-62.303-128.989-72.401-152.646
		c-0.622-1.457-0.309-3.844-2.347-3.918c-2.397-0.087-2.605,2.45-3.069,4.143c-4.086,14.931,4.876,21.632,19.252,59.566
		C1423.903,849.425,1440.501,870.565,1460.013,889.659z M2278.865,808.292c21.863,1.114-0.147-1.149,19.244-40.185
		c0.691-1.391,1.892-3.039,0.462-4.59c-1.46-1.584-3.535-1.047-5.385-0.966c-4.283,0.186-19.286,22.259-22.048,27.094
		c-2.741,4.8-8.901,9.311-6.478,14.61C2266.97,809.305,2274.256,807.84,2278.865,808.292z M1454.301,899.014
		c-0.492-4.094,0.17-3.135-2.241-5.888c-33.844-38.641-43.287-68.755-68.643-123.806c-1.011-2.196-1.555-6.593-5.359-5.031
		c-3.606,1.481-1.118,4.943-0.672,7.568c0.17,1,24.918,61.83,53.916,100.918C1437.907,881.677,1445.564,889.53,1454.301,899.014z
		 M2022.084,598.646c-9.257,1.63-11.771,15.469-1.143,16.598c9.324,0.991,24.657,5.206,32.019-4.275
		c2.079-2.678,5.658-5.465,3.973-9.2c-1.613-3.576-4.962,0.612-7.603-0.372c-1.713-0.638-3.707-0.587-5.584-0.704
		C2038.325,600.353,2030.617,597.144,2022.084,598.646z M1370.258,623.492c0.179-18.956,5.148-37.118,2.999-56.062
		c-12.647,6.049-15.925,3.553-14.615,16.654c0.634,6.338,2.243,12.839,1.42,19.001
		C1358.819,612.385,1362.947,618.086,1370.258,623.492z M1579.136,971.598c13.538-4.069,15.976-4,16.542-7.715
		c1.253-8.212-20.485-13.366-28.581-14.318c-10.264-1.208-16.25,8.631-10.079,12.546
		C1563.754,966.384,1570.336,971.419,1579.136,971.598z M2260.777,726.651c0.638,11.284,19.207,35.65,40.11,21.626
		c2.112-1.417,4.094-3.184,6.907-3.365c1.405-0.091,2.959-0.779,2.839-2.517c-0.338-4.902-9.207-1.425-14.697-3.445
		C2284.542,734.76,2272.442,732.75,2260.777,726.651z M605.833,572.076c1.058-1.014,12.76-4.042-1.704-11.308
		c-8.083-4.06-17.168-2.617-25.599-4.804c-2.854-0.74-3.217,1.664-3.604,3.966C572.795,572.612,590.861,586.428,605.833,572.076z
		 M1031.215,937.136c-24.809-0.598-25.679,15.881-16.731,17.239c20.292,3.08,42.623-10.28,29.494-15.816
		C1039.813,936.804,1035.371,936.148,1031.215,937.136z M2367.307,729.161c5.472,2.318,10.662,0.989,15.647,1.465
		c8.72,0.832,9.458-4.519,10.353-10.705c1.707-11.805-7.712-2.871-30.729-3.085c-7.74-0.072-20.119,2.364-18.212,9.976
		c1.242,4.959,22.892-3.669,27.499-5.813c1.896-0.883,4.018-2.804,5.538-0.212C2379.367,724.138,2376.041,725.102,2367.307,729.161z
		 M675.844,543.252c0.8-3.638-1.151-4.415-4.28-2.652c-30.547,17.217-28.451,30.003-24.263,29.353
		c5.885-0.914,12.45,0.516,17.423-3.91C671.355,560.141,674.646,552.443,675.844,543.252z M359.33,694.086
		c-10.5,0.841-21.413,12.511-35.819,11.34c-5.729-0.466-15.492-5.847-18.346,2.063c-1.276,3.535,2.151,1.542,15.344,9.409
		c2.969,1.77,3.312,2.944,24.072-7.349C351.058,706.338,355.546,701.026,359.33,694.086z M1351.168,604.745
		c2.571-7.898,0.877-14.983,0.958-21.985c0.16-13.911-17.832-19.124-17.157-12.862c1.28,11.877-2.298,25.746,13.019,31.945
		C1348.971,602.242,1349.668,603.345,1351.168,604.745z M2379.336,741.954c-0.803-4.294-12.952,0.1-27.968-1.601
		c-7.128-0.807-16.692,0.042-16.438,7.498C2335.438,762.774,2380.279,746.998,2379.336,741.954z M229.585,672.047
		c3.14,6.376,6.731,12.139,11.877,16.735c2.758,2.463,4.605,7.331,8.648,6.716c10-1.522,19.481,1.033,30.169,3.024
		c-2.669-4.112-5.702-4.813-9.038-5.091c-10.142-0.845-18.667-6.067-27.52-10.357c-1.169-0.566-2.823-1.652-2.222-3.175
		c0.939-2.382,2.693-0.946,4.107-0.27c7.52,3.597,15.685,5.098,23.648,7.233c1.904,0.51,4.701,1.417,5.371-1.389
		C276.372,678.147,264.409,683.178,229.585,672.047z M2006.044,600.5c-0.494-11.22-5.939-21.322-8.762-32.12
		c-0.633-2.421-2.122-1.848-3.55-0.251c-8.845,9.896-3.798,41.142,10.823,38.069C2007.468,605.585,2005.434,602.594,2006.044,600.5z
		 M1955.148,565.973c-3.296-0.62-4.251,1.154-2.409,4.016c3.007,4.671,10.422,23.527,21.245,29.182
		C1989.622,607.341,1974.208,569.558,1955.148,565.973z M1709.469,146.424c15.123,0.241,13.681-22.66,0.701-22.706
		C1696.648,123.669,1691.79,146.142,1709.469,146.424z M1276.144,601.721c12.029-5.557,19.226-12.825,18.699-25.475
		c-0.075-1.791,0.61-3.941-1.921-4.737c-4.743-1.49-13.597,3.431-15.342,8.296C1275.092,586.743,1277.143,593.774,1276.144,601.721z
		 M628.387,541.527c-7.502,19.859-13.157,34.687-6.473,33.75c4.993-0.7,10.811-2.175,11.756-8.502
		C634.912,558.45,633.461,550.429,628.387,541.527z M934.311,108.858c-13.256,0.666-10.364,17.492,6.447,17.661
		C952.651,126.638,947.484,108.196,934.311,108.858z M2298.169,730.979c-12.365-23.525-37.805-13.629-29.877-9.624
		C2277.624,726.069,2287.108,730.3,2298.169,730.979z M256.538,703.1c1.655,8.046,15.192,11.444,22.502,14.111
		c1.801,0.657,4.791,3.824,5.415-0.406c0.4-2.709,2.873-7.474-2.946-8.614C273.415,706.604,265.604,703.607,256.538,703.1z
		 M322.049,695.48c18.763,3.666,26.371-11.002,41.967-4.679C353.985,681.787,327.647,685.377,322.049,695.48z M450.341,748.617
		c-1.786-15.689-1.008-17.853-5.719-13.569c-5.778,5.255-2.607,10.156,0.549,15.058c0.98,1.523,1.591,4.107,3.785,3.55
		C451.378,753.041,449.923,750.44,450.341,748.617z M620.105,536.912c0.834-9.449,0.834-9.449-1.644-12.592
		C617.932,528.858,620.804,532.633,620.105,536.912z M313.95,720.46c-4.468-0.878-6.577-3.084-10.35-2.171
		C306.393,720.88,308.847,721.853,313.95,720.46z M1252.411,742.17c2.657-0.303,3.072-5.728,0.114-5.576
		C1249.592,736.745,1250.096,742.435,1252.411,742.17z"/>
</g>
</svg>
